<?xml version="1.0" encoding="utf-8"?>
<!-- Generator: Adobe Illustrator 24.2.1, SVG Export Plug-In . SVG Version: 6.00 Build 0)  -->
<svg version="1.1" id="Layer_1" xmlns="http://www.w3.org/2000/svg" xmlns:xlink="http://www.w3.org/1999/xlink" x="0px" y="0px"
	 viewBox="0 0 244.5 276.2" style="enable-background:new 0 0 244.5 276.2;" xml:space="preserve">
<style type="text/css">
	.st0{fill:#877575;}
	.st1{fill:#5386C7;}
</style>
<path class="st0" d="M124.3,112.9c-29.5,0-58.9,0-88.4,0c-6.6,0-6.7,0-6-6.8c0.6-6.1,1.5-12.2,2.1-18.3c0.3-3.4,1.7-4.9,5.4-4.8
	c10.8,0.2,21.6-0.1,32.5,0.2c4.1,0.1,5.5-1.5,5.9-5.4c1.1-10.9,2.7-21.8,3.8-32.7c0.3-3.2,1.6-4.2,4.7-4.2c7,0.2,14,0.2,21,0
	c4-0.2,4.7,1.5,4.3,5.1c-1.4,10.9-2.5,21.8-4,32.7c-0.4,3.3,0.4,4.5,3.8,4.4c12.3-0.1,24.6-0.1,37,0c3.1,0,4.3-1.1,4.7-4.3
	c1.1-10.9,2.7-21.8,3.8-32.7c0.4-3.6,1.4-5.4,5.4-5.2c6.8,0.3,13.7,0.2,20.5,0c3.4-0.1,4.7,0.7,4.2,4.5c-1.4,10.4-2.5,20.8-3.8,31.2
	c-0.8,6.2-0.7,6.4,5.7,6.4c10.2,0,20.3,0.2,30.5-0.1c4.7-0.1,5.7,1.4,4.8,5.9c-1.1,6.2-2,12.5-2.2,18.8c-0.2,4.5-2.1,5.4-6.2,5.4
	C183.9,112.8,154.1,112.9,124.3,112.9z"/>
<path class="st1" d="M174.9,128.4c-0.8,7.2-1.2,13.7-2.4,20.1c-0.9,4.6,1,5.4,5,5.3c10.5-0.2,20.9,1.3,31.2,3.5
	c3.8,0.8,5.3,2.3,4.5,6.4c-1.2,6.4-1.8,12.9-2.3,19.3c-0.3,3.7-1.8,4.4-5.1,3.6c-10.4-2.3-21-3.1-31.7-3.2c-4.1,0-5.9,1.1-6.3,5.5
	c-1.1,11.9-2.9,23.8-4,35.7c-0.5,4.8-2.3,6.5-7.2,6.2c-6.5-0.5-13-0.2-19.5-0.1c-3.1,0.1-4.1-1-3.7-4.2c1.5-11.5,2.8-23.1,4.3-34.7
	c0.7-5.8,0.4-6.2-5.6-5.5c-11.6,1.5-23.1,3-34.7,4.4c-3.7,0.4-5.5,1.8-5.9,5.8c-0.9,9.8-2.5,19.5-3.4,29.2c-0.3,3.5-1.4,5-5.1,4.9
	c-6.8-0.2-13.7-0.2-20.5,0c-4,0.1-4.9-1.5-4.4-5.1c1.2-8.9,1.9-17.9,3.3-26.8c0.6-3.9-0.2-5.3-4.4-5.4c-10.7-0.3-21.2-1.6-31.7-3.8
	c-3.9-0.8-5.2-2.3-4.5-6.4c1.1-6.4,1.7-12.9,2.3-19.3c0.3-3.3,1.5-4.6,5.2-3.7c10.8,2.4,21.7,3.2,32.7,3.4c3.2,0.1,4.7-0.9,5.1-4.4
	c1.1-10.6,2.6-21.1,3.8-31.7c0.3-2.9,1.5-4.1,4.4-4c7.2,0.1,14.3,0.2,21.5,0c3.8-0.1,4.4,1.8,4,5c-1.2,9.1-2.1,18.2-3.4,27.2
	c-0.7,4.3,0.9,5.4,4.8,4.8c12.5-1.7,25.1-3.4,37.6-4.9c3.3-0.4,3.5-2.7,3.8-4.9c0.9-7.3,1.8-14.5,2.4-21.8c0.3-3.9,1.8-5.6,5.9-5.4
	c6.3,0.3,12.7,0.2,19,0C173.8,123.5,176.3,124.2,174.9,128.4z"/>
</svg>
