<?xml version="1.0" encoding="utf-8"?>
<!-- Generator: Adobe Illustrator 24.2.1, SVG Export Plug-In . SVG Version: 6.00 Build 0)  -->
<svg version="1.1" id="Layer_1" xmlns="http://www.w3.org/2000/svg" xmlns:xlink="http://www.w3.org/1999/xlink" x="0px" y="0px"
	 viewBox="0 0 695.5 276.2" style="enable-background:new 0 0 695.5 276.2;" xml:space="preserve">
<style type="text/css">
	.st0{fill:#FFFFFF;}
</style>
<path class="st0" d="M124.3,112.9c-29.5,0-58.9,0-88.4,0c-6.6,0-6.7,0-6-6.8c0.6-6.1,1.5-12.2,2.1-18.3c0.3-3.4,1.7-4.9,5.4-4.8
	c10.8,0.2,21.6-0.1,32.5,0.2c4.1,0.1,5.5-1.5,5.9-5.4c1.1-10.9,2.7-21.8,3.8-32.7c0.3-3.2,1.6-4.2,4.7-4.2c7,0.2,14,0.2,21,0
	c4-0.2,4.7,1.5,4.3,5.1c-1.4,10.9-2.5,21.8-4,32.7c-0.4,3.3,0.4,4.5,3.8,4.4c12.3-0.1,24.6-0.1,37,0c3.1,0,4.3-1.1,4.7-4.3
	c1.1-10.9,2.7-21.8,3.8-32.7c0.4-3.6,1.4-5.4,5.4-5.2c6.8,0.3,13.7,0.2,20.5,0c3.4-0.1,4.7,0.7,4.2,4.5c-1.4,10.4-2.5,20.8-3.8,31.2
	c-0.8,6.2-0.7,6.4,5.7,6.4c10.2,0,20.3,0.2,30.5-0.1c4.7-0.1,5.7,1.4,4.8,5.9c-1.1,6.2-2,12.5-2.2,18.8c-0.2,4.5-2.1,5.4-6.2,5.4
	C183.9,112.8,154.1,112.9,124.3,112.9z"/>
<path class="st0" d="M314.5,53.6c-1.6-8.4-7.4-13.2-16-13.9c-5.6-0.4-10.9,0.3-16.1,2.6c-1.2,0.5-3.4,1.3-3.6,1
	c-3-4.3-7.3-2.3-10.9-2.4c-7.4-0.3-7.3,0-8.2,7.6c-2.8,23.2-5.9,46.5-8.5,69.8c-1.6,14.7-5,12.4,11.4,12.7c3.5,0.1,4.7-1.4,5-4.6
	c0.6-5.9,1.5-11.8,2.1-17.8c0.3-3,1.5-4.1,4.5-3.5c2.8,0.6,5.6,0.7,8.4,1c11.5-0.1,21.7-3.2,27-14.5C315.2,79.6,317,66.7,314.5,53.6
	z M297.7,67.4c-0.3,4.3-0.9,9.4-2.6,14.3c-3,8.5-13.1,12.7-21.4,9.1c-1.8-0.8-1.4-2-1.3-3.3c1.1-9.2,2.2-18.5,3.4-27.7
	c0.1-0.9,0.5-2.2,1.2-2.6c4.8-2.4,9.8-4.5,15.3-2.4c4.9,1.8,5.4,6.3,5.5,10.8C297.7,65.9,297.7,66.2,297.7,67.4z"/>
<path class="st0" d="M356.1,83c1.6-13,3.1-26.1,4.7-39.1c0-0.2,0-0.4,0.1-0.5c4.3-5.4,10-1.8,15.1-2.3c3.8-0.4,2,3,1.8,4.8
	c-1.1,10.2-2.4,20.5-3.6,30.7c-0.2,2.1-0.5,4.3-0.4,6.5c0.3,5.3,2.7,7.5,7.8,7.7c3.7,0.1,7.2-0.9,10.7-2.1c3.1-1,2.9-3.8,3.2-6.2
	c1.5-12,3.1-24.1,4.3-36.1c0.4-4.4,2.2-5.8,6.6-5.7c11.3,0.3,11.4,0.1,10.1,11.3c-1.9,16.2-4,32.3-6,48.5c-0.1,1.1-0.1,2.3-1.1,3.2
	c-1.5,1.2-15.1,1.3-15.8-0.3c-1.4-3-2.9-1.3-4.4-0.7c-5.3,2.2-10.8,3.3-16.5,3.1c-10.1-0.4-15.3-5.2-16.1-15.3c-0.2-2.5,0-5,0-7.5
	C356.5,83.1,356.3,83,356.1,83z"/>
<path class="st0" d="M457.9,39.7c5.5-0.1,11.4,0.9,17.4,1.7c3.2,0.4,4.5,1.8,3.5,5c-0.1,0.5-0.1,1-0.2,1.5c-1.1,7.6-1.1,7.5-8.7,6.7
	c-5.3-0.6-10.6-0.7-15.9-0.8c-2-0.1-4,0.1-5.9,1c-2.1,1-3.5,2.5-3.5,5c-0.1,2.7,1.7,3.9,4,4.4c3.9,0.9,7.8,1.5,11.7,2.3
	c11.2,2.3,15.1,5.6,15.6,13.2c0.8,12-4.1,20.7-13.7,24.1c-3.6,1.3-7.4,2-11.2,2.2c-8.4,0.4-16.6-0.5-24.9-1.9
	c-3.1-0.5-4.1-1.7-3.4-4.6c0-0.2,0-0.3,0.1-0.5c1-8.7,1.1-8.9,9.6-7.6c5.6,0.8,11.3,1.1,16.9,0.8c2-0.1,4-0.4,5.7-1.5
	c2.2-1.4,3-3.5,2.8-6c-0.1-2.5-1.9-3.4-4-3.8c-4.1-0.9-8.1-1.7-12.2-2.5c-6.4-1.4-13.1-2.7-14.8-10.6c-1.9-9.1,1.8-18.8,8.8-23.4
	C442.3,39.8,449.8,39.4,457.9,39.7z"/>
<path class="st0" d="M331.2,104.6c-8.4,0-8.6,0-7.5-8.6c3-25.3,6.2-50.5,9.2-75.7c0.4-3.8,1.7-5.4,5.9-5.4
	c12,0.1,12.2-0.1,10.7,11.7c-2.9,24.4-6.1,48.8-9,73.3c-0.4,3.6-1.8,5.1-5.4,4.7C333.9,104.5,332.5,104.6,331.2,104.6z"/>
<g>
	<path class="st0" d="M174.9,128.4c-0.8,7.2-1.2,13.7-2.4,20.1c-0.9,4.6,1,5.4,5,5.3c10.5-0.2,20.9,1.3,31.2,3.5
		c3.8,0.8,5.3,2.3,4.5,6.4c-1.2,6.4-1.8,12.9-2.3,19.3c-0.3,3.7-1.8,4.4-5.1,3.6c-10.4-2.3-21-3.1-31.7-3.2c-4.1,0-5.9,1.1-6.3,5.5
		c-1.1,11.9-2.9,23.8-4,35.7c-0.5,4.8-2.3,6.5-7.2,6.2c-6.5-0.5-13-0.2-19.5-0.1c-3.1,0.1-4.1-1-3.7-4.2c1.5-11.5,2.8-23.1,4.3-34.7
		c0.7-5.8,0.4-6.2-5.6-5.5c-11.6,1.5-23.1,3-34.7,4.4c-3.7,0.4-5.5,1.8-5.9,5.8c-0.9,9.8-2.5,19.5-3.4,29.2c-0.3,3.5-1.4,5-5.1,4.9
		c-6.8-0.2-13.7-0.2-20.5,0c-4,0.1-4.9-1.5-4.4-5.1c1.2-8.9,1.9-17.9,3.3-26.8c0.6-3.9-0.2-5.3-4.4-5.4c-10.7-0.3-21.2-1.6-31.7-3.8
		c-3.9-0.8-5.2-2.3-4.5-6.4c1.1-6.4,1.7-12.9,2.3-19.3c0.3-3.3,1.5-4.6,5.2-3.7c10.8,2.4,21.7,3.2,32.7,3.4c3.2,0.1,4.7-0.9,5.1-4.4
		c1.1-10.6,2.6-21.1,3.8-31.7c0.3-2.9,1.5-4.1,4.4-4c7.2,0.1,14.3,0.2,21.5,0c3.8-0.1,4.4,1.8,4,5c-1.2,9.1-2.1,18.2-3.4,27.2
		c-0.7,4.3,0.9,5.4,4.8,4.8c12.5-1.7,25.1-3.4,37.6-4.9c3.3-0.4,3.5-2.7,3.8-4.9c0.9-7.3,1.8-14.5,2.4-21.8c0.3-3.9,1.8-5.6,5.9-5.4
		c6.3,0.3,12.7,0.2,19,0C173.8,123.5,176.3,124.2,174.9,128.4z"/>
	<path class="st0" d="M677.7,166.8c-8.3,0-16.6,0.2-24.9-0.9c-7.1-0.9-14.3-0.1-21,2.9c-12.8,5.7-17.3,26-7.6,36.1
		c2.5,2.6,1.2,4-0.3,5.8c-3.4,3.9-4.6,8.1-2.4,12.9c0.9,1.9,0.3,3-1.2,4.2s-3.1,2.5-4.3,4.1c-4.2,5.4-5.3,11.5-3.2,17.9
		c2,6.1,7.3,7.9,12.9,8.8c4.6,0.7,9.2,1.5,13.9,1.1c5.6,0.4,11-0.4,16.2-2.2c11.7-3.5,17.5-11.2,17.8-23.5
		c0.2-10.5-3.3-14.5-13.9-15.4c-6.3-0.5-12.6-0.7-18.9-1c-2.4-0.1-4.4-0.8-4.2-3.7c0.2-2.6,1.3-4.4,4.4-4.3c3.3,0.1,6.7,0.1,10-0.1
		c15.2-1,24.1-10.9,22.6-25.7c-0.4-4,0-5.5,4.5-5.4c5.5,0.2,3.7-4.8,4.3-7.8C683.1,166.8,680.4,166.8,677.7,166.8z M641.5,232
		c0-0.1,0-0.2,0-0.2c3.1,0.3,6.3,0.5,9.4,0.8c2.7,0.3,5.5,0.6,5.9,4.2c0.4,3.4-0.4,6.6-3.7,8c-7.3,3.1-14.9,3-22.4,0.5
		c-2.9-1-3.6-3.9-2.9-6.7c0.9-3.4,2.9-6.1,6.7-6.5C636.8,231.8,639.1,232,641.5,232z M645.2,197.8c-6.2-0.1-9.4-2.7-9.3-7.9
		c0.1-7.9,4.3-12.1,12.1-12c6.2,0.1,9.2,2.6,9.3,7.9C657.4,193.5,653,197.9,645.2,197.8z"/>
	<path class="st0" d="M285.9,230.8c-9,0-8.8,0-7.7-9.2c1.2-10.4,3.3-20.7,3.4-31.2c0.1-7.4-3.2-10.1-10.6-9.4
		c-1.8,0.2-3.6,0.7-5.4,0.9c-4.1,0.4-5.5,2.8-5.9,6.6c-1.4,12.6-3.2,25.1-4.6,37.6c-0.4,3.5-1.8,4.7-5.4,4.7
		c-12.2,0.1-12.4,0.2-11-12c2.9-24.6,6-49.2,9-73.8c0.3-2.6,1.3-4,4-4c0.3,0,0.7,0,1,0c15.3,0.2,12.8-2,11.3,12.5
		c-0.3,3.3-0.8,6.6-1.3,9.9c-0.5,3.8,0.2,5.8,4.7,4.3c4.4-1.4,9-2.2,13.8-2.1c12.3,0.3,17.9,5.7,18.3,18.1
		c0.3,8.4-1.4,16.6-2.2,24.8c-0.5,4.5-1.2,8.9-1.6,13.4C294.8,230.8,294.8,230.8,285.9,230.8z"/>
	<path class="st0" d="M497,187.3c-1.6,13.2-3.2,26.4-4.8,39.6c-0.3,2.8-1.6,4-4.6,4c-16.7-0.2-13.1,1.7-11.8-13
		c0.9-9.4,3-18.7,2.8-28.3c-0.1-6.7-2.6-8.9-9.3-8.7c-0.7,0-1.3,0.1-2,0.2c-9.7,1.2-9.8,1.3-10.9,11.2c-1.3,11.2-2.8,22.4-4.1,33.7
		c-0.4,3.6-1.9,5-5.7,5c-12.4,0-12.4,0.2-10.9-12c3-24.1,6-48.2,8.9-72.3c0.4-3.8,1.7-5.5,5.9-5.5c12.6-0.1,12.6-0.3,10.8,12.1
		c-0.6,3.8-0.9,7.6-1.5,11.4c-0.6,3.6,0.8,4.4,4.2,3.5c4.6-1.3,9.3-2.3,14.3-2.2c12.6,0.2,18.2,5.7,18.4,18.5c0,1,0,2,0,3
		C496.8,187.3,496.9,187.3,497,187.3z"/>
	<path class="st0" d="M606.9,219.3c-2.5-1.8-2.9-3.5-2.6-6.3c1.2-9.9,2.7-19.8,3.2-29.8s-3.6-14.7-13.5-16.6
		c-9.5-1.8-18.9-0.5-28.3,1.1c-8.5,1.4-8.7,1.6-9,9.9c-0.1,2.5,0.5,3.7,3.3,3.4c5.7-0.5,11.3-0.9,17.2-1.3c2.6,0.2,5.5,0,8.2,0.6
		c4,0.8,4.4,3.8,4.4,7.3c0,3.8-2.2,4.3-5.2,4.4c-4.6,0.2-9.3,0.6-13.9,1.1c-16,1.6-24.1,11.3-21.7,26.1c1.3,7.9,6.1,12.3,14.2,12.8
		c7.2,0.4,14.2-0.5,21.1-2.9c1.9-0.7,3.7-1.4,5.7,0c3.8,2.8,8.4,3,12.9,2.8c1.9-0.1,4.4,0.2,4.6-2.6
		C607.7,226,610.9,222.1,606.9,219.3z M587.3,209.1c-0.5,2.7,0.8,6.5-2.8,7.9c-4.8,1.9-9.9,3.2-15,1.5c-2.8-0.9-3-3.7-2.9-6.3
		c0.2-3.8,1.7-6.9,5.5-8c3-0.9,6.2-1.1,9.3-1.6C587.7,202.6,588.4,203.2,587.3,209.1z"/>
	<path class="st0" d="M365,219.8c-3.8-2.6-3.4-5.6-3-9.1c1-8.5,2.2-17.1,3.2-25.7c1.1-10-3.4-16.1-13.3-18.4
		c-3.6-0.9-7.3-0.7-12.2-0.8c-5.6-0.2-12.3,1.1-18.9,2.3c-5.7,0.9-7.7,4-6.2,11c0.9,4.3,4.6,1.3,7,1.7c1.7,0.3,3.6-0.3,5.4-0.4
		c4.9-0.1,9.9-0.5,14.9-0.2c3.9,0.2,5.7,2.8,5.7,6.8s-2.3,4.9-5.8,5c-4.6,0.1-9.3,0.6-13.9,1.1c-15.6,1.8-21.5,8.4-21.3,23.8
		c0.1,9.6,5.1,14.6,14.8,15.1c7.1,0.3,13.9-0.5,20.6-3c1.8-0.7,3.6-1.3,5.6,0.1c4,2.9,8.7,2.9,13.4,2.7c2-0.1,4-0.4,4.1-2.7
		C365.3,225.9,368.2,221.9,365,219.8z M344.8,208.4c-0.8,2.9,0.6,6.8-3,8.4c-4.6,2.1-9.6,3.1-14.6,1.8c-2.9-0.7-3.4-3.5-3.3-6.1
		c0.3-3.8,1.5-7.4,5.7-8.5c3.3-0.7,6.7-1,9.9-1.5C344.9,201.3,346.1,203.6,344.8,208.4z"/>
	<path class="st0" d="M395.3,232c-6.4,0.2-12.6-0.7-18.8-1.7c-3.2-0.5-4.3-2.1-3.6-5.1c0.3-1.5,0.7-2.9,0.8-4.4
		c0.3-3.3,2.1-4.1,5.1-3.7c5.1,0.7,10.2,1.2,15.4,1.6c2.3,0.2,4.6-0.1,6.9-0.4c4-0.5,7.2-2.3,7.2-6.8c0-4.3-4-4.4-6.9-5.1
		c-5.2-1.2-10.5-1.5-15.6-3.4c-6.4-2.4-8.9-5.9-9-12.8c-0.2-14.4,8.5-23.2,24.1-24.2c8.3-0.5,16.6,0.5,24.8,1.8
		c2.9,0.5,3.8,1.7,3.3,4.7c-1.3,9-1.2,9.1-10.1,8.2c-4.8-0.5-9.6-0.9-14.4-0.9c-2.2,0-4.3,0.3-6.3,1.1c-2.4,1-3.6,2.9-3.5,5.5
		c0.1,2.5,2,3.4,3.9,3.9c4,0.9,8.2,1.6,12.2,2.4c11.3,2.4,15,5.8,15.5,13.9c0.6,10.9-4.8,19.8-13.8,23.2
		C406.9,231.9,401.2,232.1,395.3,232z"/>
	<path class="st0" d="M526.2,150.1c9.7-0.1,8.8,0,7.6,8.2c-1.2,8.6-1,8.5,8,8.7c2.6,0.1,7.4-1.9,6.7,3.7
		c-1.3,10.9-0.3,10.7-6.9,10.8c-10.8,0.2-10.8,0.2-12,11.3c-0.6,5.6-1.5,11.2-1.9,16.8c-0.4,6.2,0.9,7.4,7,7.4c8.5,0,8.3,0,7.4,8.4
		c-0.4,3.8-1.7,5.6-5.6,5.9c-5.1,0.4-10.2,1.4-15.4,0.5c-7.5-1.3-10.9-4.9-11.4-12.7c-0.5-8.5,1.6-16.9,2.3-25.3
		c0.2-2.2,0.3-4.3,0.8-6.4c0.8-3.6,0.8-6.3-4.1-6.1c-1.6,0.1-2.3-1.3-2.1-2.8c0.3-3.1,0.7-6.3,1.1-9.4c0.3-2.2,2.2-2.3,3.9-2.2
		c3,0.2,4.1-1.4,4.2-4.2c0-1.3,0.5-2.6,0.6-3.9C517.2,148.3,518.1,150.3,526.2,150.1z"/>
</g>
</svg>
